<?xml version="1.0" encoding="UTF-8"?>
<svg width="184px" height="45px" viewBox="0 0 184 45" version="1.1" xmlns="http://www.w3.org/2000/svg" xmlns:xlink="http://www.w3.org/1999/xlink">
    <!-- Generator: Sketch 44.1 (41455) - http://www.bohemiancoding.com/sketch -->
    <title>Group</title>
    <desc>Created with Sketch.</desc>
    <defs></defs>
    <g id="Page-1" stroke="none" stroke-width="1" fill="none" fill-rule="evenodd">
        <g id="clark-contracts" transform="translate(-51.000000, -68.000000)" fill="#FFFFFF">
            <g id="Group" transform="translate(44.000000, 68.000000)">
                <g id="Group-2">
                    <path d="M49.5650529,13.8179578 C49.5216568,14.165993 49.4175077,14.8054982 49.2526025,15.7364924 L48.9141146,17.8246933 C47.5514767,18.1553268 46.2192361,18.3206411 44.9173528,18.3206411 C43.9713176,18.3206411 43.1424644,18.2249328 42.4307682,18.0335134 C41.5888836,17.8072905 40.8338026,17.407056 40.1655026,16.8327979 C39.479844,16.241138 38.9807962,15.5407276 38.6683443,14.7315457 C38.2951377,13.7831497 38.1085372,12.7216582 38.1085372,11.5470393 C38.1085372,10.4681301 38.2907982,9.42839042 38.6553255,8.42778914 C39.0198528,7.42718785 39.5579565,6.60279177 40.2696527,5.95457615 C40.9813489,5.30636054 41.7711463,4.87132303 42.6390684,4.64945057 C43.5069906,4.42757811 44.4660303,4.31664355 45.5162161,4.31664355 C46.1324409,4.31664355 46.752996,4.34927136 47.3778999,4.41452796 C48.0028039,4.47978457 48.7752431,4.62117176 49.6952406,4.83869378 L49.7212782,5.13887266 C49.7473158,5.45210437 49.7668438,5.77185694 49.7798626,6.09813997 C49.7928814,6.424423 49.8210885,6.93994245 49.8644846,7.64471379 L49.9425972,8.80627555 C48.7014685,8.37123152 47.6035634,8.15371276 46.6488489,8.15371276 C45.9631904,8.15371276 45.3621633,8.2863992 44.8457496,8.55177607 C44.3293359,8.81715293 43.9474559,9.19998594 43.700098,9.70028658 C43.4527402,10.2005872 43.3290631,10.7813623 43.3290631,11.4426292 C43.3290631,12.1125971 43.4397216,12.6737954 43.6610417,13.1262412 C43.8823619,13.578687 44.2360349,13.9180163 44.7220713,14.1442392 C45.2081077,14.3704621 45.7418719,14.4835718 46.3233797,14.4835718 C46.6184733,14.4835718 46.9678067,14.4531192 47.3713906,14.3922131 C47.7749744,14.3313069 48.1264776,14.2638761 48.4259108,14.1899186 C48.7253439,14.1159611 49.1050542,13.9919754 49.5650529,13.8179578 Z M51.9344687,17.9682572 L52.1688065,15.1622371 L52.6765385,5.41294904 L52.8197449,0.166344188 C54.0261568,0.18374595 54.9331218,0.1924467 55.5406674,0.1924467 C56.3304766,0.1924467 57.2027253,0.18374595 58.1574397,0.166344188 L57.8580081,4.17307973 L57.3763137,14.0398291 L57.2721635,17.9813084 C56.3434868,17.9639066 55.5059544,17.9552059 54.7595413,17.9552059 L51.9344687,17.9682572 Z M61.4381692,8.45389165 C61.6030744,7.59250445 61.7072235,6.99867825 61.7506196,6.67239522 C61.7940158,6.3461122 61.8634485,5.83494312 61.9589199,5.13887266 C64.4585359,4.59071718 66.6066111,4.31664355 68.40321,4.31664355 C69.4273582,4.31664355 70.3647001,4.43192849 71.2152639,4.66250183 C72.0658276,4.89307516 72.7297781,5.26503224 73.2071354,5.7783842 C73.6844926,6.29173616 73.9231676,7.02694956 73.9231676,7.98404644 C73.9231676,8.47129576 73.8580744,9.56759029 73.7278861,11.2729629 C73.5976977,12.9783355 73.4978882,15.2144283 73.4284544,17.9813084 C72.5778907,17.9639066 71.7316792,17.9552059 70.8897947,17.9552059 C70.0739478,17.9552059 69.2060386,17.9639066 68.2860411,17.9813084 C68.4075502,17.0242115 68.5420761,15.0491412 68.6896229,12.0560383 C68.3598125,12.2126541 68.1016095,12.3257639 67.9150062,12.3953709 C67.7284029,12.464978 67.4007672,12.569387 66.9320892,12.7086011 C66.4634113,12.8478151 66.0967196,12.9652753 65.8320034,13.060985 C65.5672871,13.1566946 65.3372912,13.2785052 65.1420087,13.4264201 C64.9467262,13.5743351 64.8078607,13.7265982 64.7254081,13.8832141 C64.6429555,14.0398299 64.6017298,14.2138449 64.6017298,14.4052643 C64.6017298,14.7010943 64.7188975,14.953416 64.9532365,15.1622371 C65.1875755,15.3710583 65.5607765,15.4754673 66.0728506,15.4754673 C66.2551142,15.4754673 66.4503938,15.460241 66.6586951,15.4297879 C66.8669965,15.3993348 67.1534065,15.3232032 67.5179338,15.2013909 C67.2662364,15.8713587 66.9668077,16.8501931 66.6196388,18.1379235 C65.8732257,18.2597358 65.1658798,18.3206411 64.4975797,18.3206411 C63.4213561,18.3206411 62.5252399,18.1705531 61.8092041,17.8703727 C61.0931683,17.5701924 60.542046,17.0851255 60.1558206,16.4151577 C59.7695952,15.7451899 59.5764854,15.0752321 59.5764854,14.4052643 C59.5764854,13.9963229 59.6480879,13.5960884 59.7912951,13.2045488 C59.9345022,12.8130091 60.1579889,12.4301761 60.4617616,12.0560383 C60.7655344,11.6819004 61.1213772,11.3621478 61.5293006,11.096771 C61.937224,10.8313941 62.4948557,10.5812475 63.2022123,10.3463237 C63.9095689,10.1114 64.8056851,9.88953083 65.8905878,9.6807097 C66.3419074,9.59370089 66.756334,9.50016782 67.1338802,9.4001077 C67.5114263,9.30004757 67.7804782,9.21304007 67.9410438,9.13908258 C68.1016094,9.06512509 68.2317957,8.97811759 68.3316068,8.87805746 C68.4314178,8.77799733 68.5030204,8.67358833 68.5464165,8.56482732 C68.5898126,8.45606631 68.6115103,8.34078137 68.6115103,8.21896904 C68.6115103,7.88833557 68.4726448,7.63383863 68.1949097,7.45547058 C67.9171746,7.27710252 67.5092573,7.18791983 66.9711456,7.18791983 C65.4783194,7.18791983 63.6340124,7.60990622 61.4381692,8.45389165 Z M76.3446584,17.9813084 L76.7482402,12.1865508 L76.8784279,8.85848058 C76.8871071,8.25811981 76.8914467,7.64471692 76.8914467,7.0182535 C76.8914467,6.38308921 76.8827676,5.59567132 76.8654091,4.6559762 C77.915595,4.67337796 78.7487878,4.68207871 79.3650125,4.68207871 C80.085388,4.68207871 80.9142412,4.67337796 81.8515972,4.6559762 L81.7995221,6.13076811 C82.1380118,5.74792936 82.4157427,5.46297979 82.6327233,5.27591085 C82.8497038,5.08884191 83.0970579,4.91917728 83.374793,4.76691187 C83.6525281,4.61464646 83.9432777,4.50153671 84.2470505,4.42757922 C84.5508233,4.35362173 84.8676101,4.31664355 85.1974205,4.31664355 C85.5098725,4.31664355 85.8570362,4.3601473 86.238922,4.4471561 C86.2476012,5.3955521 86.2692989,6.17861962 86.3040158,6.79638216 L86.3951472,8.80627555 C85.91779,8.66706146 85.4708167,8.59745546 85.0542141,8.59745546 C84.5334608,8.59745546 84.0843178,8.67358703 83.7067716,8.82585244 C83.3292255,8.97811785 82.9950804,9.20868773 82.7043265,9.517569 C82.4135726,9.82645026 82.1814069,10.2114585 82.0078224,10.6726051 C81.834238,11.1337518 81.7127307,11.8646148 81.6432969,12.8652161 C81.5738631,13.8658174 81.5391468,15.0099661 81.5391468,16.2976964 C81.5391468,16.7501422 81.556505,17.3113406 81.5912218,17.9813084 C80.7493373,17.9639066 79.9031259,17.9552059 79.0525621,17.9552059 C78.2106776,17.9552059 77.308052,17.9639066 76.3446584,17.9813084 Z M87.749099,17.9813084 C87.8706081,16.8675957 87.9573991,15.9627177 88.0094744,15.2666472 C88.0789082,14.3182512 88.1483409,13.1305988 88.2177747,11.7036544 L88.3609811,8.61050672 C88.4217357,7.20966492 88.4651311,5.86974939 88.4911688,4.59071992 C88.5258857,3.05936491 88.5432439,1.58458775 88.5432439,0.166344188 C89.7583349,0.18374595 90.6696396,0.1924467 91.2771851,0.1924467 C91.9802021,0.1924467 92.8133949,0.18374595 93.7767885,0.166344188 C93.5771664,2.44597494 93.3949055,5.27806914 93.2300003,8.66271174 C93.0650951,12.0473543 92.9826437,15.1535222 92.9826437,17.9813084 C91.975854,17.9639066 91.125303,17.9552059 90.4309652,17.9552059 C89.6324768,17.9552059 88.7385303,17.9639066 87.749099,17.9813084 Z M93.4903757,10.4898876 L95.7296037,7.25317611 L97.4090248,4.6559762 C98.6067574,4.67337796 99.5137225,4.68207871 100.129947,4.68207871 C100.980511,4.68207871 101.987286,4.67337796 103.150301,4.6559762 L100.559567,8.03625146 C99.9520211,8.81062985 99.331466,9.64590187 98.6978828,10.5420926 C99.3054283,11.6645062 100.767855,14.14422 103.085208,17.9813084 C102.069739,17.9639066 101.154094,17.9552059 100.338248,17.9552059 C99.5050422,17.9552059 98.5503421,17.9639066 97.4741186,17.9813084 L96.666955,16.3499014 C96.3805407,15.7843442 96.1331866,15.3101533 95.9248852,14.9273145 C95.8467722,14.7706987 95.2522545,13.7048568 94.141314,11.7297569 L93.4903757,10.4898876 Z" id="clark"></path>
                    <polygon id="Rectangle-2" opacity="0.5" transform="translate(27.678166, 25.963164) rotate(43.000000) translate(-27.678166, -25.963164) " points="-4.22182483 20.2844725 59.5781559 20.3607922 47.5760171 31.6418561 5.73390083 31.6418561"></polygon>
                    <polygon id="Rectangle-2-Copy" transform="translate(15.870413, 36.703316) rotate(43.000000) translate(-15.870413, -36.703316) " points="-0.340793055 31.0433916 32.081619 31.0821764 20.0794802 42.3632403 10.2679074 42.3632403"></polygon>
                    <path d="M78.6513474,39.5749671 C78.6079512,39.9230024 78.5038021,40.5625075 78.3388969,41.4935018 L78.000409,43.5817027 C76.6377711,43.9123362 75.3055305,44.0776504 74.0036472,44.0776504 C73.057612,44.0776504 72.2287588,43.9819422 71.5170626,43.7905228 C70.675178,43.5642999 69.9200971,43.1640654 69.251797,42.5898072 C68.5661384,41.9981474 68.0670907,41.297737 67.7546387,40.4885551 C67.3814321,39.5401591 67.1948317,38.4786675 67.1948317,37.3040486 C67.1948317,36.2251394 67.3770926,35.1853998 67.7416199,34.1847985 C68.1061472,33.1841972 68.6442509,32.3598011 69.3559471,31.7115855 C70.0676433,31.0633699 70.8574407,30.6283324 71.7253629,30.4064599 C72.5932851,30.1845875 73.5523247,30.0736529 74.6025106,30.0736529 C75.2187353,30.0736529 75.8392904,30.1062807 76.4641944,30.1715373 C77.0890983,30.2367939 77.8615375,30.3781811 78.781535,30.5957031 L78.8075726,30.895882 C78.8336102,31.2091137 78.8531382,31.5288663 78.866157,31.8551493 C78.8791759,32.1814323 78.9073829,32.6969518 78.950779,33.4017231 L79.0288916,34.5632849 C77.7877629,34.1282409 76.6898578,33.9107221 75.7351434,33.9107221 C75.0494848,33.9107221 74.4484577,34.0434085 73.932044,34.3087854 C73.4156303,34.5741623 73.0337503,34.9569953 72.7863924,35.4572959 C72.5390346,35.9575966 72.4153576,36.5383716 72.4153576,37.1996386 C72.4153576,37.8696064 72.526016,38.4308048 72.7473361,38.8832506 C72.9686563,39.3356964 73.3223293,39.6750256 73.8083657,39.9012485 C74.2944021,40.1274714 74.8281663,40.2405812 75.4096742,40.2405812 C75.7047677,40.2405812 76.0541012,40.2101286 76.457685,40.1492224 C76.8612688,40.0883162 77.212772,40.0208854 77.5122052,39.9469279 C77.8116383,39.8729704 78.1913486,39.7489848 78.6513474,39.5749671 Z M88.7929675,30.0736529 C89.869191,30.0736529 90.9041727,30.2389671 91.8979436,30.5696006 C92.8917146,30.9002341 93.7314167,31.3766002 94.4170752,31.9987131 C95.1027338,32.6208261 95.6082909,33.3473387 95.9337617,34.1782729 C96.2592325,35.009207 96.4219655,35.903209 96.4219655,36.8603059 C96.4219655,37.7913002 96.2765907,38.6766015 95.9858367,39.5162365 C95.6950828,40.3558715 95.2025444,41.1432894 94.5082066,41.8785138 C93.8138688,42.6137382 92.9307713,43.1640607 91.8588873,43.5294977 C90.7870034,43.8949347 89.6522122,44.0776504 88.4544795,44.0776504 C87.3522184,44.0776504 86.2933692,43.9166865 85.2779002,43.5947539 C84.2624312,43.2728214 83.41405,42.8029808 82.7327311,42.1852183 C82.0514122,41.5674558 81.5393457,40.827892 81.1965165,39.9665048 C80.8536872,39.1051176 80.6822751,38.2002396 80.6822751,37.2518436 C80.6822751,36.3034476 80.8493477,35.3985696 81.1834977,34.5371824 C81.5176478,33.6757952 82.0470723,32.9014284 82.7717874,32.2140588 C83.4965024,31.5266893 84.3926186,30.9981187 85.4601629,30.6283313 C86.5277072,30.2585438 87.638631,30.0736529 88.7929675,30.0736529 Z M88.7018361,33.9107221 C88.1463659,33.9107221 87.6516577,34.0542845 87.2176966,34.3414136 C86.7837355,34.6285426 86.4560998,35.0483538 86.2347796,35.6008597 C86.0134595,36.1533657 85.902801,36.7558926 85.902801,37.4084587 C85.902801,38.3655556 86.1414761,39.0985938 86.6188333,39.6075953 C87.0961905,40.1165968 87.6950478,40.3710937 88.4154232,40.3710937 C88.9622142,40.3710937 89.4525829,40.2253562 89.886544,39.9338767 C90.3205051,39.6423972 90.6481408,39.21171 90.869461,38.6418024 C91.0907811,38.0718947 91.2014396,37.460667 91.2014396,36.8081009 C91.2014396,36.2686463 91.1146486,35.7814043 90.9410642,35.3463603 C90.7674798,34.9113162 90.4832395,34.5632862 90.0883349,34.3022598 C89.6934303,34.0412334 89.2312687,33.9107221 88.7018361,33.9107221 Z M98.2185554,43.7383178 C98.4702529,41.7632178 98.6633627,39.5815047 98.7978906,37.193113 C98.9324185,34.8047212 99.0127001,32.5447013 99.0387378,30.4129855 C100.080244,30.4303873 100.97853,30.4390881 101.733623,30.4390881 C102.610224,30.4390881 103.452096,30.4303873 104.259264,30.4129855 L104.129076,32.1879563 C104.41549,31.8660238 104.662844,31.6115268 104.871146,31.4244579 C105.079447,31.2373889 105.33765,31.0546732 105.645762,30.8763051 C105.953875,30.6979371 106.281511,30.5521995 106.628679,30.4390881 C106.975848,30.3259766 107.355559,30.2367939 107.767822,30.1715373 C108.180085,30.1062807 108.61187,30.0736529 109.063189,30.0736529 C109.688093,30.0736529 110.297799,30.1410837 110.892326,30.2759474 C111.486853,30.410811 111.983731,30.6022275 112.382975,30.8502026 C112.782219,31.0981777 113.116364,31.4070543 113.38542,31.7768418 C113.654476,32.1466292 113.832397,32.5446885 113.919189,32.9710317 C114.005982,33.3973748 114.049377,33.8367627 114.049377,34.2892085 C114.049377,34.619842 114.014661,35.3333035 113.945227,36.4296145 L113.723908,41.1541691 C113.680512,42.0851633 113.658814,42.9465376 113.658814,43.7383178 C112.782213,43.720916 111.962039,43.7122152 111.198267,43.7122152 C110.16544,43.7122152 109.223758,43.720916 108.373194,43.7383178 C108.451307,42.9465376 108.533759,41.7697611 108.620551,40.2079531 C108.707343,38.646145 108.750739,37.5476752 108.750739,36.912511 C108.750739,35.9293114 108.561968,35.2441273 108.184422,34.8569382 C107.806876,34.469749 107.331696,34.2761573 106.758867,34.2761573 C106.255472,34.2761573 105.780292,34.4414715 105.333312,34.772105 C104.886332,35.1027385 104.541338,35.5834549 104.29832,36.2142688 C104.055302,36.8450826 103.88389,37.8826471 103.784079,39.3269933 C103.684268,40.7713395 103.617005,42.2417663 103.582288,43.7383178 C102.714366,43.720916 101.868154,43.7122152 101.043628,43.7122152 C100.175706,43.7122152 99.2340244,43.720916 98.2185554,43.7383178 Z M126.156831,39.9012485 C126.000605,40.6321225 125.866079,41.345584 125.753249,42.0416545 L125.466837,43.6339077 C124.607594,43.8253271 123.937134,43.9471376 123.455437,43.9993429 C122.97374,44.0515482 122.507239,44.0776504 122.055919,44.0776504 C121.318185,44.0776504 120.662914,44.01457 120.090085,43.8884072 C119.517257,43.7622444 119.039907,43.5316745 118.658021,43.1966906 C118.276135,42.8617067 118.015762,42.4766985 117.876895,42.0416545 C117.738027,41.6066105 117.668595,41.1454707 117.668595,40.6582214 C117.668595,40.5712126 117.672934,40.4167743 117.681613,40.1949018 C117.690293,39.9730293 117.720669,39.4792618 117.772745,38.7135843 L118.059158,34.1978497 L116.02823,34.1978497 C116.071626,33.597489 116.110682,32.8057207 116.145399,31.8225212 L116.184455,30.6087544 L118.345571,30.6087544 C118.397646,30.2085139 118.462739,29.3340885 118.540852,27.985452 L120.767061,27.528658 C121.174985,27.4503501 122.042894,27.2502328 123.370815,26.9283002 C123.31006,28.0681156 123.266665,29.2949214 123.240627,30.6087544 L126.208906,30.6087544 C126.139473,32.4185376 126.104756,33.6148907 126.104756,34.1978497 L123.11044,34.1978497 L122.954214,37.4606637 C122.936856,37.947913 122.928177,38.26114 122.928177,38.4003541 C122.928177,38.8179964 122.973742,39.1660264 123.064874,39.4444546 C123.156006,39.7228828 123.316569,39.923 123.546568,40.0448124 C123.776568,40.1666247 124.030431,40.2275299 124.308166,40.2275299 C124.516468,40.2275299 124.733445,40.2123036 124.959105,40.1818505 C125.184764,40.1513975 125.584003,40.0578644 126.156831,39.9012485 Z M127.810215,43.7383178 L128.213797,37.9435602 L128.343984,34.6154899 C128.352663,34.0151292 128.357003,33.4017263 128.357003,32.7752629 C128.357003,32.1400986 128.348324,31.3526807 128.330965,30.4129855 C129.381151,30.4303873 130.214344,30.4390881 130.830569,30.4390881 C131.550944,30.4390881 132.379798,30.4303873 133.317154,30.4129855 L133.265078,31.8877775 C133.603568,31.5049387 133.881299,31.2199891 134.09828,31.0329202 C134.31526,30.8458513 134.562614,30.6761866 134.840349,30.5239212 C135.118084,30.3716558 135.408834,30.2585461 135.712607,30.1845886 C136.01638,30.1106311 136.333166,30.0736529 136.662977,30.0736529 C136.975429,30.0736529 137.322593,30.1171566 137.704478,30.2041654 C137.713158,31.1525614 137.734855,31.935629 137.769572,32.5533915 L137.860704,34.5632849 C137.383346,34.4240708 136.936373,34.3544648 136.51977,34.3544648 C135.999017,34.3544648 135.549874,34.4305964 135.172328,34.5828618 C134.794782,34.7351272 134.460637,34.9656971 134.169883,35.2745783 C133.879129,35.5834596 133.646963,35.9684678 133.473379,36.4296145 C133.299794,36.8907612 133.178287,37.6216242 133.108853,38.6222255 C133.039419,39.6228268 133.004703,40.7669754 133.004703,42.0547058 C133.004703,42.5071516 133.022061,43.0683499 133.056778,43.7383178 C132.214894,43.720916 131.368682,43.7122152 130.518118,43.7122152 C129.676234,43.7122152 128.773608,43.720916 127.810215,43.7383178 Z M140.503513,34.210901 C140.668419,33.3495138 140.772568,32.7556876 140.815964,32.4294046 C140.85936,32.1031215 140.928793,31.5919525 141.024264,30.895882 C143.52388,30.3477265 145.671955,30.0736529 147.468554,30.0736529 C148.492702,30.0736529 149.430044,30.1889378 150.280608,30.4195112 C151.131172,30.6500845 151.795122,31.0220416 152.27248,31.5353935 C152.749837,32.0487455 152.988512,32.7839589 152.988512,33.7410558 C152.988512,34.2283051 152.923419,35.3245996 152.79323,37.0299723 C152.663042,38.7353449 152.563232,40.9714377 152.493799,43.7383178 C151.643235,43.720916 150.797023,43.7122152 149.955139,43.7122152 C149.139292,43.7122152 148.271383,43.720916 147.351385,43.7383178 C147.472894,42.7812209 147.60742,40.8061506 147.754967,37.8130476 C147.425157,37.9696635 147.166954,38.0827732 146.98035,38.1523803 C146.793747,38.2219873 146.466111,38.3263963 145.997433,38.4656104 C145.528755,38.6048245 145.162064,38.7222846 144.897348,38.8179943 C144.632631,38.913704 144.402635,39.0355145 144.207353,39.1834295 C144.01207,39.3313444 143.873205,39.4836076 143.790752,39.6402234 C143.7083,39.7968393 143.667074,39.9708543 143.667074,40.1622737 C143.667074,40.4581036 143.784242,40.7104254 144.018581,40.9192465 C144.25292,41.1280676 144.626121,41.2324766 145.138195,41.2324766 C145.320458,41.2324766 145.515738,41.2172503 145.724039,41.1867972 C145.932341,41.1563442 146.218751,41.0802126 146.583278,40.9584003 C146.331581,41.6283681 146.032152,42.6072025 145.684983,43.8949328 C144.93857,44.0167452 144.231224,44.0776504 143.562924,44.0776504 C142.4867,44.0776504 141.590584,43.9275625 140.874548,43.6273821 C140.158512,43.3272017 139.60739,42.8421349 139.221165,42.1721671 C138.834939,41.5021992 138.64183,40.8322415 138.64183,40.1622737 C138.64183,39.7533323 138.713432,39.3530978 138.856639,38.9615581 C138.999846,38.5700185 139.223333,38.1871855 139.527106,37.8130476 C139.830879,37.4389097 140.186721,37.1191572 140.594645,36.8537803 C141.002568,36.5884034 141.5602,36.3382569 142.267556,36.1033331 C142.974913,35.8684093 143.871029,35.6465402 144.955932,35.437719 C145.407252,35.3507102 145.821678,35.2571772 146.199224,35.157117 C146.57677,35.0570569 146.845822,34.9700494 147.006388,34.8960919 C147.166954,34.8221344 147.29714,34.7351269 147.396951,34.6350668 C147.496762,34.5350067 147.568365,34.4305977 147.611761,34.3218367 C147.655157,34.2130757 147.676854,34.0977907 147.676854,33.9759784 C147.676854,33.6453449 147.537989,33.390848 147.260254,33.2124799 C146.982519,33.0341119 146.574601,32.9449292 146.03649,32.9449292 C144.543664,32.9449292 142.699357,33.3669156 140.503513,34.210901 Z M166.515012,39.5749671 C166.471615,39.9230024 166.367466,40.5625075 166.202561,41.4935018 L165.864073,43.5817027 C164.501435,43.9123362 163.169195,44.0776504 161.867311,44.0776504 C160.921276,44.0776504 160.092423,43.9819422 159.380727,43.7905228 C158.538842,43.5642999 157.783761,43.1640654 157.115461,42.5898072 C156.429803,41.9981474 155.930755,41.297737 155.618303,40.4885551 C155.245096,39.5401591 155.058496,38.4786675 155.058496,37.3040486 C155.058496,36.2251394 155.240757,35.1853998 155.605284,34.1847985 C155.969811,33.1841972 156.507915,32.3598011 157.219611,31.7115855 C157.931308,31.0633699 158.721105,30.6283324 159.589027,30.4064599 C160.456949,30.1845875 161.415989,30.0736529 162.466175,30.0736529 C163.0824,30.0736529 163.702955,30.1062807 164.327859,30.1715373 C164.952763,30.2367939 165.725202,30.3781811 166.645199,30.5957031 L166.671237,30.895882 C166.697274,31.2091137 166.716802,31.5288663 166.729821,31.8551493 C166.74284,32.1814323 166.771047,32.6969518 166.814443,33.4017231 L166.892556,34.5632849 C165.651427,34.1282409 164.553522,33.9107221 163.598808,33.9107221 C162.913149,33.9107221 162.312122,34.0434085 161.795708,34.3087854 C161.279294,34.5741623 160.897414,34.9569953 160.650057,35.4572959 C160.402699,35.9575966 160.279022,36.5383716 160.279022,37.1996386 C160.279022,37.8696064 160.38968,38.4308048 160.611,38.8832506 C160.83232,39.3356964 161.185993,39.6750256 161.67203,39.9012485 C162.158066,40.1274714 162.69183,40.2405812 163.273338,40.2405812 C163.568432,40.2405812 163.917765,40.2101286 164.321349,40.1492224 C164.724933,40.0883162 165.076436,40.0208854 165.375869,39.9469279 C165.675303,39.8729704 166.055013,39.7489848 166.515012,39.5749671 Z M178.596428,39.9012485 C178.440202,40.6321225 178.305676,41.345584 178.192846,42.0416545 L177.906433,43.6339077 C177.04719,43.8253271 176.376731,43.9471376 175.895034,43.9993429 C175.413337,44.0515482 174.946836,44.0776504 174.495516,44.0776504 C173.757782,44.0776504 173.102511,44.01457 172.529682,43.8884072 C171.956854,43.7622444 171.479504,43.5316745 171.097618,43.1966906 C170.715732,42.8617067 170.455359,42.4766985 170.316492,42.0416545 C170.177624,41.6066105 170.108191,41.1454707 170.108191,40.6582214 C170.108191,40.5712126 170.112531,40.4167743 170.12121,40.1949018 C170.129889,39.9730293 170.160266,39.4792618 170.212342,38.7135843 L170.498755,34.1978497 L168.467827,34.1978497 C168.511223,33.597489 168.550279,32.8057207 168.584996,31.8225212 L168.624052,30.6087544 L170.785167,30.6087544 C170.837243,30.2085139 170.902336,29.3340885 170.980449,27.985452 L173.206658,27.528658 C173.614582,27.4503501 174.482491,27.2502328 175.810412,26.9283002 C175.749657,28.0681156 175.706262,29.2949214 175.680224,30.6087544 L178.648503,30.6087544 C178.579069,32.4185376 178.544353,33.6148907 178.544353,34.1978497 L175.550036,34.1978497 L175.393811,37.4606637 C175.376453,37.947913 175.367774,38.26114 175.367774,38.4003541 C175.367774,38.8179964 175.413339,39.1660264 175.504471,39.4444546 C175.595603,39.7228828 175.756166,39.923 175.986165,40.0448124 C176.216165,40.1666247 176.470028,40.2275299 176.747763,40.2275299 C176.956064,40.2275299 177.173042,40.2123036 177.398701,40.1818505 C177.624361,40.1513975 178.023599,40.0578644 178.596428,39.9012485 Z M180.15868,43.4903439 C180.123963,43.1075051 180.089247,42.7050954 180.05453,42.2831027 C180.019813,41.86111 179.963399,41.2803349 179.885286,40.5407601 L179.781136,39.6010697 C180.623021,39.9317031 181.347725,40.1774993 181.95527,40.3384656 C182.562816,40.4994319 183.122617,40.5799138 183.634691,40.5799138 C184.059973,40.5799138 184.404967,40.5407605 184.669683,40.4624525 C184.9344,40.3841446 185.127509,40.2710349 185.249018,40.1231199 C185.370528,39.9752049 185.431281,39.8229418 185.431281,39.6663259 C185.431281,39.5271118 185.385716,39.390075 185.294584,39.2552114 C185.203452,39.1203477 184.997324,38.9354568 184.676193,38.700533 C183.964496,38.1784802 183.337432,37.7042893 182.794981,37.2779461 C182.252529,36.851603 181.844612,36.4731203 181.571217,36.1424869 C181.297821,35.8118534 181.089523,35.4551226 180.946316,35.0722839 C180.803109,34.6894451 180.731506,34.293561 180.731506,33.8846196 C180.731506,33.1624465 180.937634,32.4881384 181.349898,31.8616749 C181.762161,31.2352115 182.369697,30.7805973 183.172525,30.4978187 C183.975353,30.2150401 184.953921,30.0736529 186.108257,30.0736529 C187.314669,30.0736529 188.855208,30.2302664 190.72992,30.5434981 L190.93822,34.210901 C189.888034,33.7932587 188.87692,33.5844407 187.904847,33.5844407 C187.219189,33.5844407 186.722311,33.6540467 186.414198,33.7932608 C186.106086,33.9324749 185.952032,34.1456433 185.952032,34.4327723 C185.952032,34.528482 185.96939,34.6198399 186.004107,34.7068487 C186.038824,34.7938575 186.101747,34.8852154 186.192879,34.9809251 C186.284011,35.0766348 186.396839,35.1745182 186.531367,35.2745783 C186.665895,35.3746385 186.993531,35.6073835 187.514284,35.9728205 C188.035037,36.3382575 188.442955,36.6384334 188.738048,36.8733572 C189.224085,37.2561959 189.595116,37.6107515 189.851153,37.9370345 C190.10719,38.2633176 190.30247,38.6113476 190.436997,38.981135 C190.571525,39.3509224 190.638788,39.740281 190.638788,40.1492224 C190.638788,40.7669849 190.489074,41.3347089 190.189641,41.8524113 C189.890208,42.3701137 189.438895,42.802976 188.835689,43.1510112 C188.232483,43.4990465 187.579381,43.7404923 186.876364,43.8753559 C186.173347,44.0102196 185.448643,44.0776504 184.70223,44.0776504 C184.198835,44.0776504 183.567431,44.0341467 182.808,43.9471379 C182.048568,43.860129 181.16547,43.7078659 180.15868,43.4903439 Z" id="contracts"></path>
                </g>
            </g>
        </g>
    </g>
</svg>